<?xml version="1.0" encoding="UTF-8"?><svg id="Calque_2" xmlns="http://www.w3.org/2000/svg" viewBox="0 0 107.97 107.97"><defs><style>.cls-1{fill:#556370;}.cls-1,.cls-2,.cls-3,.cls-4{stroke-width:0px;}.cls-2{fill:#a1644e;}.cls-3{fill:#fff;}.cls-4{fill:#ef8713;}</style></defs><g id="Calque_2-2"><g id="Calque_1-2"><rect class="cls-2" width="107.97" height="107.97"/><path class="cls-2" d="M134.4,75.25h-12.83V27.71h12.83c6.7,0,10.87,3.79,10.87,10.43v26.69c0,6.63-4.15,10.43-10.87,10.43h0ZM135.79,39.09c0-1.9-.95-2.77-2.62-2.77h-2.04v30.33h2.04c1.68,0,2.62-.87,2.62-2.77v-24.79Z"/><path class="cls-2" d="M164.51,75.25l-1.24-9.77h-5.39l-1.24,9.77h-9.33l6.56-47.54h13.41l6.56,47.54h-9.33ZM161.3,45.79c-.37-3.42-.66-7.95-.66-7.95h-.14s-.29,4.52-.66,7.95l-1.17,11.59h3.79l-1.17-11.59h0Z"/><path class="cls-2" d="M208.18,75.25h-10.71l-2.48-20.2c-.51-4.23-1.02-10.13-1.02-10.13h-.14s-.51,5.91-1.02,10.13l-2.48,20.2h-10.71l-6.56-47.54h9.63l2.04,23.55c.37,4.3.8,9.84.8,9.84h.14s.29-5.46.8-9.84l2.91-23.55h9.11l2.91,23.55c.58,4.66.8,9.84.8,9.84h.14s.37-5.18.8-9.84l2.04-23.55h9.63l-6.63,47.54h0Z"/><path class="cls-2" d="M231.23,75.25l-1.24-9.77h-5.39l-1.24,9.77h-9.33l6.56-47.54h13.41l6.56,47.54h-9.33ZM228.02,45.79c-.37-3.42-.66-7.95-.66-7.95h-.14s-.29,4.52-.66,7.95l-1.17,11.59h3.79l-1.17-11.59h0Z"/><path class="cls-2" d="M250.91,75.83c-5.54,0-8.6-4.01-8.6-10.87v-2.18h2.7v2.04c0,5.25,2.04,8.46,5.91,8.46s6.12-3.5,6.12-8.46c0-2.99-1.24-6.35-3.21-8.6l-7.07-8.24c-2.26-2.62-4.08-5.39-4.08-9.91,0-6.7,2.77-10.94,8.46-10.94s8.02,4.15,8.02,10.87v2.11h-2.7v-1.97c0-4.88-1.46-8.39-5.32-8.39s-5.76,3.42-5.76,8.39c0,2.99,1.31,5.39,3.28,7.66l7.07,8.24c2.26,2.62,4.01,6.35,4.01,10.87,0,6.35-3.21,10.94-8.82,10.94h0Z"/><path class="cls-2" d="M279.05,75.25v-23.33h-11.08v23.33h-2.7V27.71h2.7v21.65h11.08v-21.65h2.7v47.54h-2.7Z"/><path class="cls-2" d="M289.04,75.25V27.71h12.39v2.55h-9.7v19.1h8.6v2.55h-8.6v20.71h9.7v2.62h-12.39Z"/><path class="cls-2" d="M318.64,75.25v-14.88c0-4.3-1.9-7.29-5.98-7.29h-3.94v22.16h-2.7V27.71h6.78c5.76,0,8.53,3.28,8.53,9.7v5.98c0,4.45-2.04,7.29-4.59,8.39,2.55,1.1,4.59,3.65,4.59,8.09v15.38h-2.7,0ZM318.64,37.55c0-4.81-2.04-7.29-5.98-7.29h-3.94v20.27h3.94c4.08,0,5.98-2.99,5.98-7.29v-5.69Z"/><path class="cls-2" d="M334.67,55.19h-4.3v20.05h-2.7V27.71h7c5.98,0,8.53,3.87,8.53,10.06v7.36c0,6.2-2.55,10.06-8.53,10.06h0ZM340.51,37.92c0-5.18-1.97-7.66-5.98-7.66h-4.15v22.38h4.15c4.01,0,5.98-2.41,5.98-7.59v-7.15h0Z"/><path class="cls-2" d="M359.6,75.25l-2.18-12.61h-9.91l-2.18,12.61h-2.7l8.46-47.54h2.77l8.6,47.54h-2.85ZM353.41,39.67c-.51-3.14-.95-8.75-.95-8.75,0,0-.44,5.62-.95,8.75l-3.57,20.48h9.04l-3.57-20.48Z"/><polygon class="cls-4" points="230.5 12 232.24 16.24 236.81 16.59 233.32 19.55 234.4 24 230.5 21.59 226.6 24 227.69 19.55 224.19 16.59 228.76 16.24 230.5 12"/><path class="cls-4" d="M122.18,82.1h3.26c1.96,0,2.96,1.49,2.96,3.25s-1.02,3.25-2.96,3.25h-1.98v4.34h-1.29v-10.84h0ZM125.33,83.24h-1.85v4.23h1.85c1.11,0,1.77-.87,1.77-2.11s-.66-2.11-1.77-2.11Z"/><path class="cls-4" d="M134.26,90.48h-3.91l-.69,2.45h-1.33l3.22-10.84h1.52l3.22,10.84h-1.33l-.69-2.45h0ZM130.62,89.35h3.37l-1.69-6.01-1.68,6.01Z"/><path class="cls-4" d="M140.35,88.6h-1.55v4.34h-1.29v-10.84h3.28c1.72,0,2.95,1.25,2.95,3.23s-1.08,2.88-2.14,3.07l2.26,4.54h-1.45l-2.06-4.34h0ZM140.65,83.24h-1.85v4.23h1.85c1.11,0,1.77-.87,1.77-2.11s-.66-2.11-1.77-2.11Z"/><path class="cls-4" d="M148.35,88.6h-1.55v4.34h-1.29v-10.84h3.28c1.72,0,2.95,1.25,2.95,3.23s-1.08,2.88-2.14,3.07l2.26,4.54h-1.45l-2.06-4.34h0ZM148.66,83.24h-1.85v4.23h1.85c1.11,0,1.77-.87,1.77-2.11s-.66-2.11-1.77-2.11Z"/><path class="cls-4" d="M158.83,90.48h-3.91l-.69,2.45h-1.33l3.22-10.84h1.52l3.22,10.84h-1.33l-.69-2.45h0ZM155.2,89.35h3.37l-1.69-6.01-1.68,6.01Z"/><path class="cls-4" d="M162.09,82.1h1.29v10.84h-1.29v-10.84Z"/><path class="cls-4" d="M166.8,84.57v8.37h-1.29v-10.84h1.29l4.38,8.16v-8.16h1.29v10.84h-1.24l-4.42-8.37h0Z"/><path class="cls-4" d="M174.58,90.78c.55.67,1.45,1.2,2.49,1.2,1.35,0,1.96-.84,1.96-1.77,0-1.24-1.02-1.74-2.12-2.27-1.29-.62-2.72-1.27-2.72-3.17,0-1.66,1.29-2.84,3.07-2.84,1.19,0,2.16.41,2.87,1.14l-.68.98c-.58-.65-1.37-.96-2.22-.96-.98,0-1.74.65-1.74,1.63s.95,1.49,2.01,2.02c1.33.65,2.84,1.38,2.84,3.42,0,1.6-1.05,3.01-3.26,3.01-1.4,0-2.48-.54-3.2-1.37l.71-.99h0Z"/><path class="cls-4" d="M185.32,82.1h5.52v1.14h-4.23v3.59h4.12v1.14h-4.12v3.82h4.23v1.15h-5.52v-10.84h0Z"/><path class="cls-4" d="M194.58,83.24h-2.54v-1.14h6.37v1.14h-2.56v9.71h-1.27v-9.71Z"/><path class="cls-4" d="M210.65,84.18l-2.87,8.76h-.5l-2.84-8.76v8.76h-1.29v-10.84h1.79l2.59,7.95,2.61-7.95h1.76v10.84h-1.25v-8.76h0Z"/><path class="cls-4" d="M219.09,90.48h-3.91l-.69,2.45h-1.33l3.22-10.84h1.53l3.22,10.84h-1.33l-.69-2.45h0ZM215.45,89.35h3.36l-1.69-6.01-1.68,6.01h0Z"/><path class="cls-4" d="M225.18,88.6h-1.55v4.34h-1.29v-10.84h3.28c1.72,0,2.95,1.25,2.95,3.23s-1.08,2.88-2.14,3.07l2.26,4.54h-1.45l-2.06-4.34h0ZM225.48,83.24h-1.85v4.23h1.85c1.11,0,1.77-.87,1.77-2.11s-.66-2.11-1.77-2.11Z"/><path class="cls-4" d="M233.18,88.6h-1.55v4.34h-1.29v-10.84h3.28c1.72,0,2.95,1.25,2.95,3.23s-1.08,2.88-2.14,3.07l2.26,4.54h-1.45l-2.06-4.34h0ZM233.49,83.24h-1.85v4.23h1.85c1.11,0,1.77-.87,1.77-2.11s-.66-2.11-1.77-2.11Z"/><path class="cls-4" d="M243.65,90.48h-3.91l-.69,2.45h-1.33l3.22-10.84h1.52l3.22,10.84h-1.33l-.69-2.45ZM240.01,89.35h3.37l-1.69-6.01-1.68,6.01Z"/><path class="cls-4" d="M246.92,82.1h1.29v10.84h-1.29v-10.84Z"/><path class="cls-4" d="M251.63,84.57v8.37h-1.29v-10.84h1.29l4.38,8.16v-8.16h1.29v10.84h-1.24s-4.42-8.37-4.42-8.37Z"/><path class="cls-4" d="M259.45,82.1h5.52v1.14h-4.23v3.59h4.12v1.14h-4.12v3.82h4.23v1.15h-5.52v-10.84h0Z"/><path class="cls-4" d="M266.89,90.78c.55.67,1.45,1.2,2.49,1.2,1.35,0,1.96-.84,1.96-1.77,0-1.24-1.02-1.74-2.12-2.27-1.29-.62-2.72-1.27-2.72-3.17,0-1.66,1.29-2.84,3.07-2.84,1.19,0,2.15.41,2.87,1.14l-.68.98c-.58-.65-1.37-.96-2.22-.96-.98,0-1.74.65-1.74,1.63s.95,1.49,2.01,2.02c1.33.65,2.84,1.38,2.84,3.42,0,1.6-1.05,3.01-3.26,3.01-1.4,0-2.48-.54-3.2-1.37l.71-.99h0Z"/><path class="cls-4" d="M277.64,82.1h3.26c1.96,0,2.96,1.49,2.96,3.25s-1.02,3.25-2.96,3.25h-1.98v4.34h-1.29v-10.84h0ZM280.78,83.24h-1.85v4.23h1.85c1.11,0,1.77-.87,1.77-2.11s-.66-2.11-1.77-2.11Z"/><path class="cls-4" d="M289.08,81.92c2.61,0,4.07,2.47,4.07,5.61s-1.46,5.61-4.07,5.61-4.06-2.47-4.06-5.61,1.45-5.61,4.06-5.61ZM289.08,83.07c-1.77,0-2.73,1.95-2.73,4.46s.97,4.46,2.73,4.46,2.76-1.99,2.76-4.46-.97-4.46-2.76-4.46Z"/><path class="cls-4" d="M294.86,82.1h1.29v7.35c0,1.68.79,2.53,2.15,2.53s2.18-.86,2.18-2.53v-7.35h1.27v7.33c0,2.39-1.27,3.71-3.45,3.71s-3.45-1.32-3.45-3.71v-7.33h0Z"/><path class="cls-4" d="M306.73,88.6h-1.55v4.34h-1.29v-10.84h3.28c1.72,0,2.95,1.25,2.95,3.23s-1.08,2.88-2.14,3.07l2.26,4.54h-1.45l-2.06-4.34h0ZM307.04,83.24h-1.85v4.23h1.85c1.11,0,1.77-.87,1.77-2.11s-.66-2.11-1.77-2.11Z"/><path class="cls-4" d="M315.32,82.1h1.29v9.69h3.88v1.15h-5.16s0-10.84,0-10.84Z"/><path class="cls-4" d="M321.88,82.1h5.52v1.14h-4.23v3.59h4.12v1.14h-4.12v3.82h4.23v1.15h-5.52v-10.84h0Z"/><path class="cls-4" d="M333.83,84.57v8.37h-1.29v-10.84h1.29l4.38,8.16v-8.16h1.29v10.84h-1.24s-4.42-8.37-4.42-8.37Z"/><path class="cls-4" d="M341.65,82.1h5.52v1.14h-4.23v3.59h4.12v1.14h-4.12v3.82h4.23v1.15h-5.52v-10.84h0Z"/><path class="cls-4" d="M348.82,82.1h3.26c1.96,0,2.96,1.49,2.96,3.25s-1.02,3.25-2.96,3.25h-1.98v4.34h-1.29v-10.84h0ZM351.95,83.24h-1.85v4.23h1.85c1.11,0,1.77-.87,1.77-2.11s-.66-2.11-1.77-2.11Z"/><path class="cls-4" d="M360.89,90.48h-3.91l-.69,2.45h-1.33l3.22-10.84h1.52l3.22,10.84h-1.33l-.69-2.45ZM357.25,89.35h3.37l-1.69-6.01-1.68,6.01Z"/><path class="cls-4" d="M364.15,82.1h1.29v9.69h3.88v1.15h-5.16s0-10.84,0-10.84Z"/><path class="cls-4" d="M129.69,23.73l-.86-2.17h-4.81l-.86,2.17h-1.37l3.88-9.75h1.49l3.89,9.75h-1.37,0ZM126.43,15.24l-2.06,5.25h4.1s-2.04-5.25-2.04-5.25Z"/><path class="cls-4" d="M132.74,22.36l.71-.92c.64.71,1.68,1.39,3.04,1.39,1.72,0,2.27-.94,2.27-1.68,0-2.52-5.72-1.13-5.72-4.61,0-1.61,1.42-2.71,3.32-2.71,1.48,0,2.62.5,3.43,1.36l-.72.89c-.72-.8-1.74-1.17-2.8-1.17-1.16,0-1.99.63-1.99,1.55,0,2.19,5.72.94,5.72,4.57,0,1.42-.95,2.87-3.57,2.87-1.68,0-2.91-.64-3.71-1.55h0Z"/><path class="cls-4" d="M142.07,22.36l.71-.92c.64.71,1.68,1.39,3.04,1.39,1.72,0,2.27-.94,2.27-1.68,0-2.52-5.72-1.13-5.72-4.61,0-1.61,1.42-2.71,3.32-2.71,1.48,0,2.62.5,3.43,1.36l-.72.89c-.72-.8-1.74-1.17-2.8-1.17-1.16,0-1.99.63-1.99,1.55,0,2.19,5.72.94,5.72,4.57,0,1.42-.95,2.87-3.57,2.87-1.68,0-2.91-.64-3.71-1.55h0Z"/><path class="cls-4" d="M151.5,18.87c0-2.88,1.92-5.04,4.8-5.04s4.8,2.17,4.8,5.04-1.94,5.04-4.8,5.04-4.8-2.17-4.8-5.04ZM159.85,18.87c0-2.28-1.39-3.96-3.55-3.96s-3.55,1.68-3.55,3.96,1.37,3.96,3.55,3.96,3.55-1.7,3.55-3.96Z"/><path class="cls-4" d="M163.42,18.87c0-3,2.18-5.04,4.96-5.04,1.71,0,2.9.83,3.66,1.93l-1.02.57c-.55-.82-1.55-1.42-2.65-1.42-2.11,0-3.72,1.64-3.72,3.96s1.6,3.96,3.72,3.96c1.1,0,2.1-.59,2.65-1.42l1.02.57c-.81,1.11-1.97,1.93-3.68,1.93-2.78,0-4.96-2.05-4.96-5.04h0Z"/><path class="cls-4" d="M174.47,23.73v-9.76h1.2v9.75h-1.2Z"/><path class="cls-4" d="M185.73,23.73l-.86-2.17h-4.81l-.86,2.17h-1.37l3.88-9.75h1.49l3.89,9.75s-1.37,0-1.37,0ZM182.47,15.24l-2.06,5.25h4.1s-2.04-5.25-2.04-5.25Z"/><path class="cls-4" d="M190.48,23.73v-8.67h-3.06v-1.08h7.33v1.08h-3.07v8.67s-1.2,0-1.2,0Z"/><path class="cls-4" d="M197.1,23.73v-9.76h1.2v9.75h-1.2Z"/><path class="cls-4" d="M201.07,18.87c0-2.88,1.92-5.04,4.8-5.04s4.8,2.17,4.8,5.04-1.94,5.04-4.8,5.04-4.8-2.17-4.8-5.04ZM209.41,18.87c0-2.28-1.39-3.96-3.55-3.96s-3.55,1.68-3.55,3.96,1.37,3.96,3.55,3.96,3.55-1.7,3.55-3.96Z"/><path class="cls-4" d="M220.27,23.73l-5.63-7.78v7.78h-1.2v-9.76h1.23l5.56,7.62v-7.62h1.2v9.75h-1.16Z"/><path class="cls-3" d="M70.79,65.31c1.32.84,2.19,1.5,3.14,1.99,1.31.67,2.75,1.08,4.01,1.82,3.59,2.11,7.12,4.33,10.66,6.52.63.39,1.38.76,1.75,1.34,2.4,3.8,6.66,4.36,10.41,6.07-.1-1.08-.28-2.09-.76-2.93-1.88-3.29-3.91-6.46-6.74-9.1-1.28-1.19-1.96-3-4.21-2.08-.22.09-.59-.06-.84-.2-2.31-1.28-4.64-2.53-6.91-3.88-1.57-.94-3.06-2.03-4.29-2.86-1.23.58-2.15.98-3.03,1.45-.91.48-1.78,1.03-3.18,1.86h-.01Z"/><path class="cls-3" d="M36.91,65.06c-2.45-1.48-4.59-2.78-6.54-3.97-1.79,1.26-3.35,2.39-4.95,3.46-2.02,1.36-4.36,2.32-5.49,4.74-.19.4-.78.76-1.24.85-2.28.44-3.76,1.98-5.21,3.61-.79.89-1.51,2-2.52,2.51-2.35,1.21-2.43,3.49-3.33,5.69,3.68-2.29,7.19-4.31,10.52-6.59,2.61-1.79,4.88-4.08,7.53-5.8,1.77-1.15,4.06-1.49,5.87-2.61,1.24-.77,1.8-.7,2.36.7.99-.86,1.83-1.57,3.01-2.59h0Z"/><path class="cls-3" d="M70.79,65.31c1.41-.83,2.27-1.38,3.18-1.86.88-.47,1.81-.87,3.03-1.45,1.23.83,2.72,1.92,4.29,2.86,2.27,1.35,4.6,2.61,6.91,3.88.25.14.62.29.84.2,2.24-.92,2.93.89,4.21,2.08,2.83,2.64,4.86,5.8,6.74,9.1.48.84.66,1.85.76,2.93-3.75-1.7-8-2.27-10.41-6.07-.37-.58-1.12-.95-1.75-1.34-3.54-2.2-7.07-4.41-10.66-6.52-1.26-.74-2.71-1.15-4.01-1.82-.96-.49-1.82-1.14-3.14-1.99h.01ZM95.84,76.86c.12-.11.25-.21.37-.32-.44-.62-.84-1.27-1.33-1.85-.86-1.03-1.86-1.95-2.63-3.04-1.45-2.06-1.56-2.14-3.75-.84-3.36-2.37-6.73-4.74-10.09-7.11-.24-.17-.48-.44-.75-.47-.46-.05-1.28-.08-1.35.1-.32.84-.45,1.76-.55,2.66,0,.05.88.2,1.36.31,1.15.25,2.49.19,3.41.79,2.99,1.96,5.81,4.16,8.71,6.25.37.27.82.44,1.47.79-.25-.7-.38-1.07-.51-1.44l.25-.25c1.79,1.48,3.59,2.95,5.38,4.43h0Z"/><path class="cls-3" d="M36.91,65.06c-1.18,1.01-2.01,1.73-3.01,2.59-.56-1.39-1.12-1.47-2.36-.7-1.8,1.12-4.1,1.46-5.87,2.61-2.65,1.73-4.92,4.02-7.53,5.8-3.33,2.28-6.85,4.3-10.52,6.59.9-2.19.98-4.48,3.33-5.69,1.01-.52,1.73-1.62,2.52-2.51,1.45-1.63,2.93-3.16,5.21-3.61.46-.09,1.05-.45,1.24-.85,1.14-2.42,3.47-3.38,5.49-4.74,1.6-1.07,3.16-2.2,4.95-3.46,1.95,1.18,4.1,2.48,6.54,3.97h0ZM35.27,64.79c-1.84-.99-3.19-1.72-4.56-2.46-1.12,1.72-2.18,3.36-3.36,5.17,2.62-.9,5.09-1.74,7.92-2.71ZM27.85,65.22c-.35-.31-.63-.73-.81-.69-.36.08-.66.42-.98.65.24.3.48.6.71.9.31-.25.63-.51,1.08-.87h0Z"/><path class="cls-2" d="M95.84,76.86c-1.79-1.48-3.59-2.95-5.38-4.43l-.25.25c.13.37.26.74.51,1.44-.66-.35-1.1-.52-1.47-.79-2.9-2.09-5.72-4.29-8.71-6.25-.92-.6-2.26-.55-3.41-.79-.47-.1-1.36-.25-1.36-.31.1-.9.23-1.82.55-2.66.07-.19.89-.15,1.35-.1.26.03.5.3.75.47,3.37,2.37,6.73,4.74,10.09,7.11,2.19-1.3,2.31-1.22,3.75.84.76,1.09,1.77,2.01,2.63,3.04.48.58.89,1.23,1.33,1.85-.12.11-.25.21-.37.32h0Z"/><path class="cls-2" d="M35.27,64.79c-2.84.97-5.3,1.81-7.92,2.71,1.18-1.82,2.24-3.45,3.36-5.17,1.38.74,2.73,1.47,4.56,2.46Z"/><path class="cls-2" d="M27.85,65.22c-.45.36-.77.62-1.08.87-.24-.3-.48-.6-.71-.9.32-.23.62-.57.98-.65.18-.04.47.38.81.69h0Z"/><path class="cls-1" d="M68.12,70.32s-.04.06-.05.09c.04-.02.07-.04.11-.06-.04-.02-.08-.03-.11-.05l.06.03h0Z"/><path class="cls-3" d="M63.79,43.05c-2.18,3.26-5.21,3.78-7.98,1.53-3.51-2.85-4.11-7.97-.76-10.86,3.39-2.94,3.53-6.28,2.58-10.11-.59-2.37-1.45-4.69-1.35-7.19.09-2.35,1.09-3.91,2.81-4.39.98-.28,1.55-.26,1.39,1.11-.39,3.3-.23,6.55,1.25,9.64.96,2.01,4.2,2.95,6.25,2.03,6.12-2.73,9.16-7.62,10.26-13.98.02-.1.15-.18.23-.27,2.86,1.79,3.87,4.8,2.61,8-1.33,3.36-3.98,5.69-6.54,8.03-3.31,3.02-4.19,6.45-2.45,10.63,2.83,6.83-.61,16.04-7.22,19.27-.15.07-.36,0-.67,0,1.83-3.91,3.23-7.86,3.67-12.11.25-2.45-.17-4.73-1.47-6.84-1.33-2.17-2.95-2.81-5.22-1.99-1.42.52-2.66,2.62-2.44,4.14.28,1.9,2.02,3.21,4.35,3.26.19,0,.37.06.73.12l-.03-.02Z"/><path class="cls-3" d="M66.91,22.83c-2.37-.04-4.27-1.97-4.27-4.34s1.97-4.29,4.33-4.29,4.47,2.07,4.38,4.45c-.09,2.36-2.07,4.23-4.44,4.19h0Z"/><path class="cls-4" d="M59.25,54.31c-1.49-1.23-2.92-2.51-4.65-3.41-3.23-1.69-4.84-1.02-5.85,2.45-.52,1.79-.94,3.63-2.1,5.15-1.21,1.6-2.51,1.76-3.95.56-1.08-.9-1.93-1.6-.02-2.74,1.7-1.02,1.98-2.94,1.67-4.83-.27-1.64-1.39-2.56-2.92-3-1.79-.51-3.6-.97-5.39-1.49-1.28-.37-2.44-.99-2.82-2.38-.3-1.09-.23-1.92,1.36-1.43,1.86.58,3.78.77,5.73.52,3.51-.45,5.56-2.51,6.02-5.99.13-.96.24-1.92.48-2.85.24-.95.7-1.82,1.62-2.31.72-.38,1.56-.45,2.22-.04.7.43.21,1.16.1,1.76-.2,1.01-.5,2-.62,3.02-.6,4.88.77,7.44,5.18,9.7.8.41,1.63.76,2.44,1.17,2.88,1.45,3.35,3.32,1.51,6.14h0Z"/><path class="cls-4" d="M40.82,35.19c1.91-.02,3.54,1.65,3.51,3.58-.03,1.85-1.61,3.43-3.44,3.44-1.87,0-3.44-1.5-3.49-3.37-.06-1.96,1.51-3.63,3.43-3.64h0Z"/><path class="cls-3" d="M22.38,43.64c.96.37,1.73.72,2.53.95,2.45.71,3.94,0,5-2.31.19-.41.31-.86.54-1.24.46-.73,1.07-1.51,2.01-.97.96.55,0,1.23-.22,1.74-1.46,3.26-1.16,4.75,1.58,7.12.93.8,2.06,1.52,1.45,3.02-.26.65-.67,1.22-1.33.28-.15-.21-.3-.42-.47-.62-2.21-2.69-3.13-2.65-4.93.2-.45.71-.88,1.47-1.64,1.87-.8.42-1.46.2-1.95-.61-.5-.83,0-.96.62-1.35,1.89-1.2,1.78-3.23-.12-4.5-1.02-.67-2.25-1.01-3.09-1.95-.31-.35-.5-.77-.36-1.24.08-.27.29-.4.39-.39h0Z"/><path class="cls-3" d="M28.71,42.24c-.22,1.18-.87,1.93-2.07,1.82-1.07-.1-1.76-.78-1.7-1.92.06-1.22.84-1.88,2.01-1.8,1.08.07,1.64.85,1.76,1.9Z"/><polygon class="cls-4" points="48.16 20.84 50.39 23 53.32 21.98 51.95 24.77 53.82 27.24 50.75 26.8 48.99 29.34 48.46 26.29 45.49 25.39 48.23 23.94 48.16 20.84"/><polygon class="cls-3" points="43.05 26.13 42.48 29.38 45.62 28.37 42.71 29.94 45.47 31.76 42.43 30.48 42.72 33.77 41.83 30.59 39.44 32.87 41.37 30.19 38.1 29.74 41.4 29.58 39.71 26.75 41.89 29.22 43.05 26.13"/><polygon class="cls-3" points="37.5 24.19 36.1 25.94 38.3 26.35 36.06 26.35 37.11 28.33 35.72 26.58 34.83 28.63 35.33 26.45 33.17 27.04 35.18 26.06 33.38 24.74 35.4 25.71 35.31 23.47 35.8 25.66 37.5 24.19"/><path class="cls-3" d="M4.43,86.71c2.79-2.66,7.04-4.44,10.31-6.6,2.98-1.97,5.76-4.23,8.73-6.22,2.56-1.72,5.26-3.25,7.91-4.83.3-.18.86-.32,1.06-.17,1.8,1.38,2.87-.11,4.05-.99,3.45-2.57,6.96-5.07,10.24-7.84,2.31-1.94,4.29-4.27,6.46-6.46,2.21,1.64,4.23,3.01,6.1,4.56,4.08,3.36,8.08,6.83,12.16,10.2.59.49,1.4.74,2.14,1.05.74.32,1.56.48,2.26.86,3.2,1.76,6.35,3.6,9.56,5.36,2.3,1.26,4.52,2.54,6.19,4.67.6.77,1.68,1.2,2.59,1.68,2.09,1.1,13.18,4.76,9.29,8.5-1.17,1.13-2.96,1.27-4.59,1.32-4.65.13-9.3.03-13.95-.08-4.91-.11-9.82-.22-14.73-.33-3-.07-6.05-.13-8.96.61-1.21.31-2.4.76-3.64.86-3.4.3-6.56-1.95-9.97-2.01-3.55-.06-6.93,2.26-10.44,1.76-1.83-.26-3.48-1.27-5.28-1.69-1.76-.42-3.59-.26-5.39-.15-4.88.3-9.79.3-14.67-.01-1.08-.07-2.2-.17-3.12-.73-1.59-.97-2.57-2.54-4.3-3.32h-.01ZM67.16,69.4c-1.74-1.33-3.69-2.47-5.18-4.03-2.09-2.19-3.79-4.73-5.75-7.05-.6-.7-1.5-1.15-2.26-1.71-.17.09-.34.18-.51.28.58,2.04,1.16,4.08,1.74,6.13-.13.04-.26.09-.39.13-.53-.89-1.06-1.79-1.59-2.68.07,3.53,1.06,6.65,3.2,9.84.1-.95.15-1.38.2-1.8.15-.03.3-.06.45-.09,1.44,3.34,2.78,6.73,4.35,10.01,1.68,3.52,2.85,7.76,8.19,7.17.2-.02.42.15.64.18,1.89.26,3.78.63,5.68.69.71.02,1.45-.67,2.18-1.04-.02-.19-.04-.39-.07-.58-.71-.34-1.43-.65-2.12-1.02-1.05-.55-2.12-1.07-3.1-1.71-1.61-1.06-3.12-2.28-4.77-3.29-.37-.22-1.1.16-2.19.36-1.57-2.2-3.45-4.84-5.5-7.72,4.82,1.79,7.23,6.37,11.92,7.61-.66-.83-1.33-1.67-1.99-2.5,1.05.37,1.87.97,2.67,1.6,2.74,2.17,5.44,4.41,8.23,6.51,1.68,1.27,3.67,1.46,5.65,1.43.05-.16.1-.32.15-.47l-1.7-1.68c4.17,2.25,8.56,2.63,13.66,1.94-.97-.48-1.47-.74-1.99-.97-1.95-.89-3.9-1.76-5.84-2.65-.47-.22-.9-.53-1.38-.72-3.33-1.29-6.69-2.51-9.99-3.86-.98-.4-1.8-1.18-2.7-1.79,2.26-.57,3.85.81,5.65,1.47,1.84.67,3.7,1.3,5.55,1.95-1.91-2.76-4.93-3.55-7.61-4.93-3.56-1.84-7.6-2.63-10.82-5.2-1.55-1.23-3.29-2.23-4.94-3.33-.01-.07,0-.15-.04-.2-.02-.03-.1-.02-.15-.03.08.06.16.13.23.19.73,1.21,1.46,2.41,2.19,3.62l.04-.04v-.02ZM56.73,85.13c.93-3.93-1-8.5-5.45-12.65-1.59,2.93-3.16,5.83-4.72,8.7.65.75,1.18,1.36,1.7,1.95-.3.65-.57,1.24-.93,2,0,0,9.4,0,9.4,0ZM35.73,72c-3.42,1-6.1,3.15-8.78,5.28-.19.15-.12.63-.26,1.52,1.75-.88,3.03-1.88,4.45-2.16,2.64-.54,3.55-2.57,4.59-4.63h0ZM45.43,77.1c1.35.53,1.77-1,2.37-1.96,1.04-1.65,1.9-3.41,2.81-5.14.12-.23.13-.58.06-.84-.32-1.19-.69-2.37-1.03-3.54-1.42,3.88-2.81,7.65-4.21,11.47h0ZM44.99,65.56c-2.42.16-3.01,2-3.72,3.53-.7,1.51-2.99,1.82-3.14,3.84,4.38-.65,5.75-3.75,6.86-7.37ZM41.63,83.6c.92,1.16,1.46,2.6,2.99,1.61.39-.25.13-1.52.18-2.51-1.27.36-2.03.58-3.16.9h-.01ZM59.28,81.38c-.5,1.24-.93,2.22.26,2.97.17.11.76-.1.89-.32.68-1.17.08-1.91-1.15-2.65ZM53.26,66.91c-.33-.65-.66-1.3-1.06-2.1-1.02,1.4-.63,2.05,1.06,2.1Z"/></g></g></svg>